<mxfile host="app.diagrams.net" modified="2022-06-22T17:20:34.884Z" agent="5.0 (Windows NT 10.0; Win64; x64) AppleWebKit/537.36 (KHTML, like Gecko) Chrome/102.0.0.0 Safari/537.36" etag="yLNXBQ4wbm-OjDHXS8K5" version="20.0.3" type="github">
  <diagram id="TCErBiOrOAUP1OEAM1EF" name="Page-1">
    <mxGraphModel dx="1038" dy="547" grid="1" gridSize="10" guides="1" tooltips="1" connect="1" arrows="1" fold="1" page="1" pageScale="1" pageWidth="827" pageHeight="1169" math="0" shadow="0">
      <root>
        <mxCell id="0" />
        <mxCell id="1" parent="0" />
        <mxCell id="iKhBR56JEJ3oeau_vcfN-1" value="" style="rounded=0;whiteSpace=wrap;html=1;" vertex="1" parent="1">
          <mxGeometry x="134" y="440" width="280" height="60" as="geometry" />
        </mxCell>
        <mxCell id="iKhBR56JEJ3oeau_vcfN-2" value="" style="endArrow=none;html=1;rounded=0;" edge="1" parent="1">
          <mxGeometry width="50" height="50" relative="1" as="geometry">
            <mxPoint x="470" y="699.9999999999998" as="sourcePoint" />
            <mxPoint x="470" y="90" as="targetPoint" />
          </mxGeometry>
        </mxCell>
        <mxCell id="iKhBR56JEJ3oeau_vcfN-3" value="python" style="rounded=0;whiteSpace=wrap;html=1;" vertex="1" parent="1">
          <mxGeometry x="160" y="40" width="120" height="60" as="geometry" />
        </mxCell>
        <mxCell id="iKhBR56JEJ3oeau_vcfN-4" value="javascript" style="rounded=0;whiteSpace=wrap;html=1;" vertex="1" parent="1">
          <mxGeometry x="580" y="40" width="120" height="60" as="geometry" />
        </mxCell>
        <mxCell id="iKhBR56JEJ3oeau_vcfN-5" value="c" style="rounded=0;whiteSpace=wrap;html=1;" vertex="1" parent="1">
          <mxGeometry x="940" y="50" width="120" height="60" as="geometry" />
        </mxCell>
        <mxCell id="iKhBR56JEJ3oeau_vcfN-6" value="" style="endArrow=none;html=1;rounded=0;" edge="1" parent="1">
          <mxGeometry width="50" height="50" relative="1" as="geometry">
            <mxPoint x="850" y="689.9999999999998" as="sourcePoint" />
            <mxPoint x="850" y="80" as="targetPoint" />
          </mxGeometry>
        </mxCell>
      </root>
    </mxGraphModel>
  </diagram>
</mxfile>
